<?xml version="1.0" encoding="utf-8"?>
<!-- Generator: Adobe Illustrator 16.0.0, SVG Export Plug-In . SVG Version: 6.00 Build 0)  -->
<!DOCTYPE svg PUBLIC "-//W3C//DTD SVG 1.1//EN" "http://www.w3.org/Graphics/SVG/1.1/DTD/svg11.dtd">
<svg version="1.1" id="Capa_1" xmlns="http://www.w3.org/2000/svg" xmlns:xlink="http://www.w3.org/1999/xlink" x="0px" y="0px"
	 width="150px" height="150px" viewBox="0 0 150 150" enable-background="new 0 0 150 150" xml:space="preserve">
<g>
	<path fill="#0D0B0E" d="M21.858,55.028c27.281-5.256,36.576,10.331,60.568-7.095c0.799,0.142,1.81-0.486,2.52,0.036
		c1.745,1.28,3.301,2.599,5.021,3.867c0.595-1.814-0.349-3.372,0.237-4.304c0.496-0.785-8.612-4.401-8.635-5.055
		c-0.045-1.338,0.613-4.423,2.501-3.168c2.204,1.464,7.38,3.53,10.785,5.609l1.581,8.614c0.428,0.196,0.852,0.487,1.282,0.826
		l-1.906-9.824l2.305-0.312l2.113,12.264l-0.027,0.008c0.416,0.336,0.85,0.649,1.298,0.903c8.218-4.544,21.486,0.224,24.611,2.844
		c0.683,0.576-0.122,1.435-0.569,1.681c-0.865,0.478-15.632-6.907-20.974-0.477c2.104,4.705,4.155,8.947,6.002,12.693
		c2.168-0.769,4.5-1.185,6.93-1.185c11.456,0,20.746,9.292,20.746,20.747c0,11.456-9.29,20.747-20.746,20.747
		s-20.746-9.291-20.746-20.747c0-7.2,3.669-13.544,9.239-17.265c-2.003-3.649-4.242-7.752-6.689-12.191
		c-4.523,3.324-8.638,8.769-8.553,14.284c0.242,15.211-3.172,14.507-8.013,6.714c-8.339,7.539-17.912,8.186-28.637,2.338
		c-0.219,0.136-0.444,0.266-0.671,0.396c0.52,1.818,0.801,3.739,0.801,5.725c0,11.456-9.291,20.747-20.746,20.747
		c-11.456,0-20.747-9.291-20.747-20.747c0-11.455,9.291-20.747,20.747-20.747c5.787,0,11.021,2.371,14.784,6.195
		c3.562-4.492,4.835-8.196,8.839-11.672l-1.136-1.125l-27.933-0.018v-0.776l-2.149-0.001L24,61.579l3.752,0.005l0.004-0.904
		l16.94-0.08c-5.537-1.343-15.312-3.664-21.932-3.961C21.434,56.582,21.768,56.124,21.858,55.028L21.858,55.028z M113.398,79.86
		c1.467,2.98,2.677,5.51,3.495,7.555c0.199-0.02,0.403-0.028,0.606-0.028c3.488,0,6.315,2.828,6.315,6.314
		c0,3.487-2.827,6.313-6.315,6.313c-3.485,0-6.313-2.826-6.313-6.313c0-1.81,0.761-3.443,1.981-4.595
		c-1.144-1.876-2.52-4.278-4.104-7.116c-3.633,2.621-5.996,6.891-5.996,11.711c0,7.97,6.464,14.433,14.432,14.433
		c7.97,0,14.433-6.463,14.433-14.433c0-7.968-6.463-14.433-14.433-14.433C116.076,79.269,114.698,79.476,113.398,79.86
		L113.398,79.86z M47.645,90.904c-2.856,1.368-5.75,2.782-8.083,4.517c-0.75,2.65-3.186,4.594-6.076,4.594
		c-3.486,0-6.314-2.828-6.314-6.313c0-3.488,2.828-6.314,6.314-6.314c1.502,0,2.881,0.524,3.965,1.402
		c2.648-1.782,4.76-3.454,6.494-5.031c-2.63-2.766-6.342-4.489-10.459-4.489c-7.969,0-14.432,6.465-14.432,14.433
		c0,7.97,6.463,14.433,14.432,14.433c7.97,0,14.433-6.463,14.433-14.433C47.918,92.744,47.822,91.809,47.645,90.904L47.645,90.904z
		 M81.976,57.924l3.604-0.878c-0.209,2.938,0.738,5.571,2.106,8.096l-3.7-0.515C82.492,62.879,81.964,60.563,81.976,57.924
		L81.976,57.924z M52.817,79.774l5.584-9.091l2.08,5.294C58.111,76.776,58.316,78.378,52.817,79.774z"/>
</g>
</svg>
