<?xml version="1.0" encoding="utf-8"?>
<!-- Generator: Adobe Illustrator 15.0.0, SVG Export Plug-In . SVG Version: 6.00 Build 0)  -->
<!DOCTYPE svg PUBLIC "-//W3C//DTD SVG 1.1//EN" "http://www.w3.org/Graphics/SVG/1.1/DTD/svg11.dtd">
<svg version="1.1" id="Capa_1" xmlns="http://www.w3.org/2000/svg" xmlns:xlink="http://www.w3.org/1999/xlink" x="0px" y="0px"
	 width="150px" height="150px" viewBox="0 0 150 150" enable-background="new 0 0 150 150" xml:space="preserve">
<path fill="none" d="M10.686,77.361H9.917c0,0-2.121,1.063-2.51,2.458c-0.389,1.399,0.773,1.111,2.51,0.193
	C11.646,79.102,12.614,77.361,10.686,77.361z"/>
<path fill="none" d="M78.005,73.313c0,0-3.279,0-4.247,0c-0.964,0-2.547,1.734,1.717,1.542
	C79.742,74.666,79.547,73.313,78.005,73.313z"/>
<path fill="none" d="M98.058,55.375c-1.732,0-10.988,0-10.988,0s-1.158,11.575-1.158,12.344s20.639,0,20.639,0
	s0.574-6.75-1.164-9.259C103.656,55.96,99.803,55.375,98.058,55.375z"/>
<path fill="none" d="M143.193,67.145c0,0-2.893,5.399-2.313,7.33c0.586,1.929,3.572,1.254,3.673,0
	C144.638,73.219,144.638,67.142,143.193,67.145z"/>
<path fill="none" d="M67.781,57.113c-4.24,1.162-10.993,6.752-10.993,6.752v5.016c0,0,23.339,0,23.149-0.772
	c-0.195-0.77,2.119-12.73,2.119-12.73C79.938,55.375,72.021,55.954,67.781,57.113z"/>
<path fill="#030104" d="M118.826,79.327c-5.644,0-10.217,4.564-10.217,10.216c0,5.632,4.568,10.211,10.217,10.211
	c5.645,0,10.211-4.566,10.211-10.211C129.037,83.892,124.464,79.327,118.826,79.327z M118.849,95.101
	c-3.133,0-5.671-2.54-5.671-5.673c0-3.137,2.538-5.674,5.671-5.674c3.14,0,5.673,2.54,5.673,5.674
	C124.524,92.561,121.974,95.101,118.849,95.101z"/>
<path fill="#030104" d="M32.302,79.434c-5.638,0-10.213,4.566-10.213,10.219c0,5.63,4.573,10.209,10.213,10.209
	c5.641,0,10.21-4.565,10.21-10.209C42.512,84.004,37.94,79.434,32.302,79.434z M32.326,95.709c-3.131,0-5.671-2.54-5.671-5.671
	c0-3.139,2.54-5.675,5.671-5.675c3.131,0,5.671,2.541,5.671,5.675C37.997,93.169,35.453,95.709,32.326,95.709z"/>
<path fill="#030104" d="M147.44,78.524c-0.68-0.676-1.542-1.549-1.542-2.507c0-0.964,0-9.643-1.542-10.99
	c-1.546-1.348-12.348,0-16.2-0.964c-3.859-0.965-15.24-8.712-20.846-10.761c-12.058-4.401-37.988-0.625-43.39,0.531
	c-5.399,1.155-24.329,13.456-27.197,13.886C18.786,70.42,7.598,75.628,6.829,77.361c-0.773,1.74-1.354,2.705-2.896,3.283
	c-1.542,0.584,0,4.246-0.191,5.399c-0.191,1.161,1.351,0,1.351,0.971c0,0.965,0,3.855,0,3.855h14.853
	c0,0,0.961-12.729,11.961-12.729c12.152,0,12.531,12.531,12.531,12.531v2.314h61.722v-2.896c0,0,1.354-11.379,12.631-11.477
	c11.291-0.09,11.485,11.477,12.066,11.477c0.577,0,14.272-2.12,15.432-3.47C147.44,85.278,148.112,79.193,147.44,78.524z
	 M9.917,80.013c-1.737,0.92-2.899,1.21-2.51-0.188c0.39-1.397,2.51-2.46,2.51-2.46h0.769C12.614,77.361,11.646,79.102,9.917,80.013z
	 M75.478,74.855c-4.267,0.192-2.681-1.542-1.716-1.542c0.967,0,4.246,0,4.246,0C79.547,73.313,79.742,74.666,75.478,74.855z
	 M79.938,68.105c0.189,0.772-23.149,0.772-23.149,0.772v-5.013c0,0,6.753-5.591,10.993-6.752c4.239-1.159,12.156-1.737,14.275-1.737
	C82.053,55.375,79.742,67.336,79.938,68.105z M106.55,67.723c0,0-20.639,0.77-20.639,0s1.158-12.344,1.158-12.344s9.256,0,10.988,0
	c1.745,0,5.599,0.582,7.332,3.084C107.124,60.969,106.55,67.723,106.55,67.723z M144.551,74.475c-0.098,1.254-3.088,1.929-3.672,0
	c-0.581-1.928,2.314-7.33,2.314-7.33C144.638,67.142,144.638,73.219,144.551,74.475z"/>
</svg>
